<?xml version="1.0" encoding="utf-8"?>
<!-- Generator: Adobe Illustrator 26.0.3, SVG Export Plug-In . SVG Version: 6.00 Build 0)  -->
<svg version="1.1" id="Layer_1" xmlns="http://www.w3.org/2000/svg" xmlns:xlink="http://www.w3.org/1999/xlink" x="0px" y="0px"
	 viewBox="0 0 300 220" style="enable-background:new 0 0 300 220;" xml:space="preserve">
<style type="text/css">
	.st0{fill:#FFFFFF;}
	.st1{fill:none;stroke:#FFFFFF;stroke-width:18.317;stroke-linecap:round;stroke-linejoin:round;}
</style>
<g>
	<g id="We_put_our_energy" transform="translate(-691.697 -7885.567)">
		<path id="Path_3224" class="st0" d="M779.2,7923.4c0.9,6.5-5.6,18.9-8.7,27.8c-0.8,2-2.3,3.1-3.6,3.3c-1.5,0.2-3-0.8-3.3-3.1
			l-2.5-18.4l-6.9,20.6c-0.6,1.9-2,2.9-3.3,3.1c-1.7,0.2-3.3-0.9-3.6-3.5l-2.1-18.4c-0.4-3.9-2.7-5.3-4.9-5
			c-2.3,0.3-4.6,2.6-4.1,5.8c0.2,1.5,1.2,2.6,2.8,2.4c0.6-0.1,1.4-0.5,2.3-0.6c1.6-0.2,2.4,0.6,2.6,1.9c0.3,2.3-2.6,3.9-4.7,4.2
			c-5,0.7-7.9-2.6-8.5-6.8c-1-7.2,4.2-11.7,9.6-12.4c4.8-0.7,9.7,1.8,10.3,8.4l1.2,12.7l6.8-20.4c0.7-2.2,2.1-3.3,3.4-3.5
			c1.5-0.2,2.9,0.9,3.2,3.2l2.7,19.2c3.1-7.6,6.7-15.1,6-20.2c-0.4-2.4,0.8-3.9,2.1-4.1C777.3,7919.4,778.8,7920.6,779.2,7923.4"/>
		<path id="Path_3225" class="st0" d="M801.7,7937.9l-0.6,2.5c-1.7,7.1-6.7,9.9-11.4,10.5c-6.2,0.8-9.7-2.1-10.3-6.5
			c-0.9-6.7,3.7-15.7,10.4-16.7c3.8-0.5,6,1.5,6.4,4.1c0.4,3-1.7,6.5-6.6,7.2l-4.1,0.6c-0.2,1.2-0.3,2.4-0.1,3.6
			c0.3,2.3,2,3.9,4.9,3.5c3-0.4,6.3-2.3,7.6-7.5l0.5-1.8c0.3-1.2,1-1.7,2.1-1.5C801.6,7935.9,802,7936.7,801.7,7937.9 M786.5,7936
			l2.5-0.3c2.1-0.3,3-1.6,2.8-2.6c-0.1-0.7-0.7-1.3-1.8-1.1C788.8,7932.2,787.5,7933.8,786.5,7936"/>
		<path id="Path_3226" class="st0" d="M837.4,7921.2c0.8,5.6-2.6,11.8-10.1,12.8l-4,0.5l-1.7,6.5l-1,3.7c-0.5,1.9-1.7,2.7-2.8,2.9
			c-1.3,0.2-2.5-0.5-2.7-2c-0.1-0.5,0-1,0.1-1.5l0.6-2.4l5-19.3c0.5-2.1,1.7-3,2.9-3.2c1.3-0.2,2.5,0.7,2.7,2.2
			c0.1,0.5,0,1.1-0.1,1.6l-0.2,0.9l-1.5,5.9l1.2-0.2c4.9-0.7,7.1-4.4,6.6-7.7c-0.4-3.3-3.5-6.4-9.1-5.6c-4.7,0.6-8.8,3.4-8.3,7.8
			c0.3,1.9,1.3,2.3,1.8,2.9c0.2,0.2,0.3,0.4,0.3,0.7c0.1,0.9-0.7,2-1.9,2.2c-2.5,0.3-4.9-2.4-5.2-5c-1-7.3,5.7-12,13-13
			C831.9,7910.7,836.6,7915.7,837.4,7921.2"/>
		<path id="Path_3227" class="st0" d="M863.8,7929.5c-0.3,1.1-0.5,2.1-0.8,3.2c-1.5,5.6-3.9,8.5-8.5,9.1c-2.2,0.3-4.2-0.3-5.3-1.7
			c-1.7,1.8-3.6,2.9-5.6,3.1c-3.2,0.4-5.5-1.3-5.9-4c-0.2-1.5,0.6-4.1,1.1-6.3l0.5-2l1.8-7.2c0.5-2.1,1.7-3,2.9-3.2
			c1.3-0.2,2.5,0.7,2.7,2.2c0.1,0.5,0,1.1-0.1,1.6l-1.5,5.8l-0.5,2c-0.6,2.2-1.2,4.2-1.1,4.9c0.1,1,0.7,1.5,1.6,1.4
			c1.1-0.2,2.6-1.3,3.3-3.5c0.2-1.1,0.6-2.5,1.1-4.3l2.1-8.2c0.5-2.1,1.7-3,2.9-3.2c1.3-0.2,2.5,0.7,2.7,2.2c0.1,0.5,0,1.1-0.1,1.6
			l-0.2,0.9l-1.5,5.9c-0.8,2.8-1.1,4.3-1.2,4.8c-0.4,1.7,0.5,2.9,1.9,2.7c1.3-0.2,2.8-1.7,3.6-4.8c0.2-0.6,0.4-1.6,1-3.8
			c0.3-1.2,1-1.7,2.1-1.5S864.1,7928.3,863.8,7929.5"/>
		<path id="Path_3228" class="st0" d="M875.4,7927c0,0.3,0,0.6-0.1,0.9c-0.3,1.1-0.8,2.9-1.1,4c-1.5,5.4-5.2,8-8.6,8.4
			c-3.3,0.4-6.3-1.1-6.7-3.9c-0.2-1.3,0.3-3.3,1-6l0.3-1.3l1.9-7.3l-0.1,0c-3.1,0.4-3-3.3,0.1-3.7l1.1-0.1l0.4-1.7l0.6-2.3
			c0.5-2.1,1.7-3,2.9-3.2c1.3-0.2,2.5,0.7,2.7,2.2c0.1,0.5,0,1.1-0.1,1.6l-0.2,0.9l-0.4,1.7l0.3,0c3.2-0.4,3.2,3.3,0,3.7l-1.3,0.2
			l-3.1,12.1c-0.1,0.3-0.1,0.7-0.1,1c0.1,1.1,1.1,1.8,2.2,1.6c1.4-0.2,3.1-1.6,4-4.8c0.1-0.6,0.4-1.6,1-3.8c0.2-0.9,0.8-1.4,1.5-1.5
			c0.2,0,0.4,0,0.7,0C874.8,7925.9,875.3,7926.3,875.4,7927"/>
		<path id="Path_3229" class="st0" d="M910.5,7910.1c0.6,1.5,1,3.1,1.3,4.7c1.3,9.8-4,22.1-12.9,23.3c-6.6,0.9-10.1-3.7-10.9-9.8
			c-0.5-3.6-0.1-7.6,1-11.4l-2.5,0.3c-1.9,0.3-2.9-0.6-3-1.8c-0.2-1.3,0.8-2.9,2.9-3.1l4.7-0.6c2.7-5.2,6.9-9.3,12.4-10.1
			c4.5-0.6,7.5,1.8,7.9,4.8C911.4,7907.7,911.2,7909,910.5,7910.1 M906.7,7915.3c-0.1-0.5-0.2-1-0.3-1.5c-1.5,0.7-3.3,1.3-5.6,1.6
			l-6.2,0.8c-1.2,3.6-1.6,7.6-1.2,10.9c0.5,3.8,2.3,6.4,5.4,5.9C904.4,7932.2,907.6,7922.2,906.7,7915.3 M897.2,7910.9l3.5-0.5
			c4.4-0.6,5.7-2,5.6-3c-0.1-0.8-1.1-1.3-2.3-1.2C901.1,7906.6,898.9,7908.4,897.2,7910.9"/>
		<path id="Path_3230" class="st0" d="M940,7919.2c-0.3,1.1-0.5,2.1-0.8,3.2c-1.5,5.6-3.9,8.5-8.5,9.1c-2.2,0.3-4.2-0.3-5.3-1.7
			c-1.7,1.8-3.6,2.9-5.6,3.1c-3.2,0.4-5.5-1.3-5.9-4c-0.2-1.5,0.6-4.1,1.1-6.3l0.5-2l1.8-7.2c0.5-2.1,1.7-3,2.9-3.2
			c1.3-0.2,2.5,0.7,2.7,2.2c0.1,0.5,0,1.1-0.1,1.6l-1.5,5.8l-0.5,2c-0.6,2.2-1.2,4.2-1.1,4.9c0.1,1,0.7,1.5,1.6,1.4
			c1.1-0.2,2.6-1.3,3.3-3.5c0.2-1.1,0.6-2.5,1.1-4.3l2.1-8.2c0.5-2.1,1.7-3,2.9-3.2c1.3-0.2,2.5,0.7,2.7,2.2c0.1,0.5,0,1.1-0.1,1.6
			l-0.2,0.9l-1.5,5.9c-0.8,2.8-1.1,4.3-1.2,4.8c-0.4,1.7,0.5,2.9,1.9,2.7c1.3-0.2,2.8-1.7,3.6-4.8c0.2-0.6,0.4-1.6,1-3.8
			c0.3-1.2,1-1.7,2.1-1.5S940.3,7918,940,7919.2"/>
		<path id="Path_3231" class="st0" d="M959,7916.6c-0.3,1.1-0.5,2.1-0.8,3.2c-1.5,5.6-3.9,8.5-8.5,9.1c-3.2,0.4-6-1.2-6.4-4
			c-0.2-1.3,0.2-2.9,1.3-7.3l1-3.6c0.1-0.2,0.1-0.4,0.1-0.6c-0.1-0.4-0.3-0.7-0.8-0.8l-2.9-0.8l-1.9,7.5c-0.1,0.8-0.7,1.4-1.5,1.5
			c-0.8,0.1-1.8-0.3-1.9-1.3c0-0.3,0-0.5,0.1-0.8c0.3-1.1,1.1-4.2,2-7.9c-1.2-0.6-2.1-1.8-2.3-3.2c-0.3-2.5,1.2-4,3-4.2
			c2-0.3,3.4,1.1,3.6,2.9c0,0.2,0,0.4,0,0.5l5.8,1.6c1.6,0.5,2.5,1.4,2.7,2.7c0.1,0.6,0,1.2-0.1,1.8l-1,4.1
			c-0.8,2.8-1.1,4.3-1.2,4.8c-0.4,1.7,0.5,2.9,1.9,2.7c1.3-0.2,2.8-1.7,3.6-4.8c0.2-0.6,0.4-1.6,1-3.8c0.3-1.2,1-1.7,2.1-1.5
			C958.8,7914.6,959.3,7915.4,959,7916.6"/>
		<path id="Path_3232" class="st0" d="M726.3,7968.7c-0.7-0.7-1.7-1.1-2.8-0.9c-2.8,0.4-4.2,3.2-3.9,5.7c0.2,1.6,1.2,3.1,3,3.6
			c1.3,0.4,1.9,1.1,2,2c0.2,1.2-0.6,2.3-1.9,2.5c0,0,0,0-0.1,0l-3.4,0.5c-5.3,0.7-7.4,4.7-6.9,8.1c0.4,3,2.8,5.5,6.9,5
			c3.5-0.5,5.9-3.4,5.5-6.3c-0.1-0.7-0.4-1.5-0.8-2.1c-0.3-0.4-0.5-0.8-0.5-1.3c-0.2-1.4,0.7-2.7,2.1-2.9c0.9-0.1,2.1,0.3,3.1,1.6
			c0.8,1.1,1.3,2.4,1.5,3.8c0.7,5.1-2.8,11.5-11.1,12.6c-7,1-11.6-3.8-12.3-9.2c-0.7-5.4,2.3-11.5,10.6-13.3
			c-1.6-1.1-2.7-2.8-2.9-4.7c-0.6-4.1,2.5-8.8,8.1-9.6c4.8-0.6,7.4,2.5,7.8,5.6c0.4,2.6-0.9,5.2-3.7,5.6c-1.9,0.3-3.7-0.8-4-2.9
			c-0.2-1.4,0.6-2.9,2.3-3.1c0.3,0,0.6,0,0.9,0c0.1,0,0.2,0,0.3,0C726.4,7969.1,726.5,7968.9,726.3,7968.7"/>
		<path id="Path_3233" class="st0" d="M758.4,7982.5c-0.3,1.1-0.5,2.1-0.8,3.2c-1.5,5.6-3.9,8.5-8.5,9.1c-3.2,0.4-6-1.2-6.4-4
			c-0.2-1.3,0.2-2.9,1.3-7.3c0.6-2.2,1.1-4.2,1-4.9c-0.1-0.8-0.5-1.3-1.6-1.1c-1.1,0.1-2,0.8-2.8,2.4l-2.6,10.2l-1,3.7
			c-0.5,1.9-1.7,2.7-2.8,2.9c-1.3,0.2-2.5-0.5-2.7-2c-0.1-0.5,0-1,0.1-1.5l0.6-2.4l3.6-14.2c0.5-2.1,1.7-3,2.9-3.2
			c1-0.1,2,0.4,2.5,1.4c1.4-1.5,3.1-2.4,4.7-2.6c2.5-0.3,4.8,0.9,5.2,3.6c0.2,1.2-0.5,4-1.3,6.9c-0.8,2.8-1.1,4.3-1.2,4.8
			c-0.4,1.7,0.5,2.9,1.9,2.7c1.3-0.2,2.8-1.7,3.6-4.8c0.2-0.6,0.4-1.6,1-3.8c0.3-1.2,1-1.7,2.1-1.5
			C758.3,7980.5,758.7,7981.3,758.4,7982.5"/>
		<path id="Path_3234" class="st0" d="M777.1,7980l-0.6,2.5c-1.7,7.1-6.7,9.9-11.4,10.5c-6.2,0.8-9.7-2.1-10.3-6.5
			c-0.9-6.7,3.7-15.7,10.4-16.7c3.8-0.5,6,1.5,6.4,4.1c0.4,3-1.7,6.5-6.6,7.2l-4.1,0.6c-0.2,1.2-0.3,2.4-0.1,3.6
			c0.3,2.3,2,3.9,4.9,3.5s6.3-2.3,7.6-7.5l0.5-1.8c0.3-1.2,1-1.7,2.1-1.5C777,7978,777.4,7978.8,777.1,7980 M761.9,7978.1l2.5-0.3
			c2.1-0.3,3-1.6,2.8-2.6c-0.1-0.7-0.7-1.3-1.8-1.1C764.2,7974.3,762.9,7975.9,761.9,7978.1"/>
		<path id="Path_3235" class="st0" d="M796.1,7977.4c-0.3,1.1-0.5,2.1-0.8,3.2c-1.5,5.6-3.9,8.5-8.5,9.1c-3.2,0.4-6-1.2-6.4-4
			c-0.2-1.3,0.2-2.9,1.3-7.3l1-3.6c0.1-0.2,0.1-0.4,0.1-0.6c-0.1-0.4-0.3-0.7-0.8-0.8l-2.9-0.8l-1.9,7.5c-0.1,0.8-0.7,1.4-1.5,1.5
			c-0.8,0.1-1.8-0.3-1.9-1.3c0-0.3,0-0.5,0.1-0.8c0.3-1.1,1.1-4.2,2-7.9c-1.2-0.6-2.1-1.8-2.3-3.2c-0.3-2.5,1.2-4,3-4.2
			c2-0.3,3.4,1.1,3.6,2.9c0,0.2,0,0.4,0,0.5l5.8,1.6c1.6,0.5,2.5,1.4,2.7,2.7c0.1,0.6,0,1.2-0.1,1.8l-1,4.1
			c-0.8,2.8-1.1,4.3-1.2,4.8c-0.4,1.7,0.5,2.9,1.9,2.7c1.3-0.2,2.8-1.7,3.6-4.8c0.2-0.6,0.4-1.6,1-3.8c0.3-1.2,1-1.7,2.1-1.5
			C795.9,7975.4,796.4,7976.2,796.1,7977.4"/>
		<path id="Path_3236" class="st0" d="M818.1,7973.6c0,0.3,0,0.5-0.1,0.8c-2.7,12.1-4.9,16-13,18.2l-1.2,4.5c-0.9,3.5-3.8,6-7.3,6.5
			c-4.6,0.6-7.4-2-7.8-5.2c-0.5-3.4,1.8-7.2,7.7-8c1.4-0.2,2.7-0.4,3.8-0.6l0.6-2.4c-0.7,0.4-1.4,0.6-2.2,0.7
			c-3.8,0.5-5.7-2.1-6.2-5.7c-0.9-6.7,3.1-16.8,9.9-17.7c1.6-0.2,3.3,0.3,4.1,1.4c0.6-1.2,1.5-1.8,2.4-2c1.3-0.2,2.5,0.7,2.7,2.2
			c0.1,0.5,0,1.1-0.1,1.6l-0.2,0.9l-5,19.4c4.7-1.9,6-5.5,8.5-14.6c0.3-1,0.9-1.5,1.6-1.6C817.1,7972,818,7972.7,818.1,7973.6
			C818.1,7973.6,818.1,7973.6,818.1,7973.6 M799.2,7993.7c-0.8,0.2-1.8,0.3-2.7,0.4c-2.5,0.3-3.4,1.7-3.3,3c0.1,1.1,1.2,2.1,2.7,1.9
			C797.8,7998.7,798.3,7997.3,799.2,7993.7 M799.9,7983.1c1.1-0.1,2.4-1.4,3.2-4.4l2.1-8.2c-0.2-0.8-0.8-1.3-1.6-1.2
			c-3.4,0.5-5.9,8.1-5.4,11.9C798.3,7982.5,798.9,7983.2,799.9,7983.1"/>
		<path id="Path_3237" class="st0" d="M839.2,7970.7c0,0.3,0,0.5-0.1,0.8c-2.7,12.1-4.9,16-13,18.2l-1.2,4.5c-0.9,3.5-3.8,6-7.3,6.5
			c-4.6,0.6-7.4-2-7.8-5.2c-0.5-3.4,1.8-7.2,7.7-8c1.4-0.2,2.7-0.4,3.8-0.6l0.6-2.6c-0.9,0.5-1.9,0.9-2.9,1c-3.2,0.4-5.5-1.3-5.9-4
			c-0.2-1.5,0.6-4.1,1.1-6.3l0.5-2l1.8-7.2c0.5-2.1,1.7-3,2.9-3.2c1.3-0.2,2.5,0.7,2.7,2.2c0.1,0.5,0,1.1-0.1,1.6l-1.5,5.8l-0.5,2
			c-0.6,2.2-1.2,4.2-1.1,4.9c0.1,1,0.7,1.5,1.6,1.4c1.2-0.2,2.7-1.4,3.3-3.7l3.2-12.3c0.5-2.1,1.7-3,2.9-3.2
			c1.3-0.2,2.5,0.7,2.7,2.2c0.1,0.5,0,1.1-0.1,1.6l-0.2,0.9l-5,19.4c4.7-1.9,6-5.5,8.5-14.6c0.3-1,0.9-1.5,1.6-1.6
			C838.2,7969.2,839.1,7969.8,839.2,7970.7C839.2,7970.7,839.2,7970.7,839.2,7970.7 M820.3,7990.9c-0.8,0.2-1.8,0.3-2.7,0.4
			c-2.5,0.3-3.4,1.7-3.3,3c0.1,1.1,1.2,2.1,2.7,1.9C818.9,7995.8,819.4,7994.4,820.3,7990.9"/>
		<path id="Path_3238" class="st0" d="M879.4,7968c0.6,4.6-2.6,10.5-9.7,11.4c-2.7,0.4-5.5-0.1-7.9-1.4c-1.6,2-3.8,3-6.8,3.4
			c-4.9,0.7-7.7-1.8-8.1-4.7c-0.4-3,1.7-6.3,6.6-6.9c2.3-0.3,4.1,0.3,5.9,1.3l0.4-1.7l3.6-13.9c0.5-2.1,1.7-3,2.9-3.2
			c1.3-0.2,2.5,0.7,2.7,2.2c0.1,0.5,0,1.1-0.1,1.6l-0.2,0.9l-0.7,2.8l0.5-0.1c4.5-0.6,6.7-3.7,6.3-6.3c-0.5-3.5-4.6-4.7-8.8-4.1
			c-4.7,0.6-8.9,3.4-8.3,7.8c0.3,1.9,1.3,2.3,1.8,2.9c0.1,0.2,0.2,0.4,0.3,0.7c0.1,0.9-0.6,2-1.9,2.2c-2.5,0.3-4.9-2.4-5.2-5
			c-1-7.3,5.7-12,13-13c6.6-0.9,13.3,1.3,14.2,7.7c0.5,3.7-1.5,7.6-6.1,9.1C877.1,7962.6,879.1,7965.1,879.4,7968 M857.6,7975.3
			c-1.3-0.8-2.7-1.4-4.2-1.2c-1.4,0.2-2.1,0.9-2,1.6c0.1,0.8,1.1,1.5,3,1.2C856,7976.8,856.8,7976.4,857.6,7975.3 M873.9,7968.3
			c-0.3-2.4-2.5-4.5-6.7-4l-0.5,0.1l-1.6,6.2c-0.3,1.2-0.6,2.2-1,3.2c1.5,0.7,3,1.2,4.8,0.9C872,7974.3,874.3,7971.5,873.9,7968.3"
			/>
		<path id="Path_3239" class="st0" d="M908.5,7962.2c-0.3,1.1-0.5,2.1-0.8,3.2c-1.5,5.6-3.9,8.5-8.5,9.1c-2.2,0.3-4.2-0.4-5.4-1.7
			c-1.4,1.8-3.2,2.9-4.9,3.1c-3.8,0.5-5.7-2.1-6.2-5.7c-0.9-6.7,3.1-16.8,9.9-17.7c1.6-0.2,3.3,0.3,4.1,1.3c0.6-1.2,1.5-1.8,2.4-1.9
			c1.3-0.2,2.5,0.7,2.7,2.2c0.1,0.5,0,1.1-0.1,1.6l-0.2,0.9l-1.5,5.9c-0.8,2.8-1.1,4.3-1.2,4.8c-0.4,1.7,0.5,2.9,1.9,2.7
			c1.3-0.2,2.8-1.7,3.6-4.8c0.2-0.6,0.4-1.6,1-3.8c0.3-1.2,1-1.7,2.1-1.5C908.3,7960.2,908.8,7961,908.5,7962.2 M893.3,7966.5
			l0.8-3.1l1.3-5.3c-0.2-0.7-0.8-1.2-1.6-1.1c-3.4,0.5-5.9,8.1-5.4,11.9c0.2,1.3,0.7,2.1,1.8,2
			C891.2,7970.7,892.5,7969.4,893.3,7966.5"/>
		<path id="Path_3240" class="st0" d="M927,7958.8c0,0.3,0,0.6-0.1,0.9c-0.2,0.9-0.4,1.6-0.6,2.4c-1.5,6.2-5.4,9.8-11.4,10.6
			c-5.6,0.8-9.5-1.9-10.1-6.4c-0.9-6.7,3.7-15.9,10.3-16.8c3.9-0.5,6.4,1.5,6.8,4.4c0.4,2.8-1.5,5.4-4.1,5.7
			c-2.2,0.3-3.3-0.9-3.5-2.2c-0.2-1.3,0.6-2.7,2.3-2.9c0.4-0.1,0.9,0,1.3,0.2c0.4,0.2,0.8,0.1,0.5-0.4c-0.4-0.7-1.2-1-2.2-0.9
			c-3.5,0.5-6.1,6.7-5.5,11c0.3,2.5,1.8,4.4,4.7,4c4-0.5,6.5-3.1,7.6-7.5c0.2-0.5,0.3-1.1,0.5-1.9c0.2-0.9,0.7-1.4,1.4-1.5
			C926.3,7957.4,926.9,7958,927,7958.8"/>
		<path id="Path_3241" class="st0" d="M940.9,7948.4c0.1,0.8-0.2,1.8-1.1,2.9l-4.5,4.8l4.5,8.9c0.2,0.3,0.3,0.7,0.3,1.1
			c0.3,1.6-0.8,3.1-2.4,3.4c0,0,0,0-0.1,0c-1.1,0.1-2.2-0.4-2.9-1.7l-5.2-10.3l-1.9,7.3l-1,3.7c-0.5,1.9-1.7,2.7-2.8,2.9
			c-1.3,0.2-2.5-0.5-2.7-2c-0.1-0.5,0-1,0.1-1.5l0.6-2.4l7.1-27.5c0.5-2.1,1.7-3,2.9-3.2c1.3-0.2,2.5,0.7,2.7,2.2
			c0.1,0.5,0,1.1-0.1,1.6l-0.2,0.9l-3.7,14.4l5.5-5.8c0.8-0.9,1.7-1.3,2.4-1.4C939.7,7946.5,940.7,7947.3,940.9,7948.4"/>
		<path id="Path_3242" class="st0" d="M781.9,8006.8c0.1,0.5,0,1.1-0.1,1.6l-0.2,0.9l0,0l-6.5,25.2l-1,3.7c-0.5,1.9-1.7,2.7-2.8,2.9
			c-1.3,0.2-2.5-0.5-2.7-2c-0.1-0.5,0-1,0.1-1.5l0.6-2.4l6.5-25.2l0,0l0,0l-2,0.3c-4,0.5-6.6,2.7-6,7c0.1,0.5,0.2,0.9,0.5,1.3
			c0.4,0.5,0.7,1,0.8,1.6c0.2,1.3-0.7,2.5-1.9,2.7c0,0-0.1,0-0.1,0c-2.3,0.3-3.9-2-4.3-5c-0.6-4.8,2-11.4,10.7-12.6l5.9-0.8l0,0
			C780.4,8004.4,781.7,8005.3,781.9,8006.8"/>
		<path id="Path_3243" class="st0" d="M806.8,8022.7c-0.3,1.1-0.5,2.1-0.8,3.2c-1.5,5.6-3.9,8.5-8.5,9.1c-3.2,0.4-6-1.2-6.4-4
			c-0.2-1.3,0.2-2.9,1.3-7.3c0.6-2.2,1.1-4.2,1-4.9c-0.1-0.8-0.5-1.3-1.6-1.1c-1.1,0.1-2,0.8-2.8,2.4l-2.6,10.2l-1,3.7
			c-0.5,1.9-1.7,2.7-2.8,2.9c-1.3,0.2-2.5-0.5-2.7-2c-0.1-0.5,0-1,0.1-1.5l0.6-2.4l3.6-14.2c0.5-2.1,1.7-3,2.9-3.2
			c1-0.1,2,0.4,2.5,1.4c1.4-1.5,3.1-2.4,4.7-2.6c2.5-0.3,4.8,0.9,5.2,3.6c0.2,1.2-0.5,4-1.3,6.9c-0.8,2.8-1.1,4.3-1.2,4.8
			c-0.4,1.7,0.5,2.9,1.9,2.7c1.3-0.2,2.8-1.7,3.6-4.8c0.2-0.6,0.4-1.6,1-3.8c0.3-1.2,1-1.7,2.1-1.5
			C806.6,8020.7,807.1,8021.5,806.8,8022.7"/>
		<path id="Path_3244" class="st0" d="M818.4,8020.2c0,0.3,0,0.6-0.1,0.9c-0.3,1.1-0.8,2.9-1.1,4c-1.5,5.4-5.2,8-8.6,8.4
			c-3.3,0.4-6.3-1.1-6.7-3.9c-0.2-1.3,0.3-3.3,1-6l0.3-1.3l1.9-7.3l-0.1,0c-3.1,0.4-3-3.3,0.1-3.7l1.1-0.1l0.4-1.7l0.6-2.3
			c0.5-2.1,1.7-3,2.9-3.2c1.3-0.2,2.5,0.7,2.7,2.2c0.1,0.5,0,1.1-0.1,1.6l-0.2,0.9l-0.4,1.7l0.3,0c3.2-0.4,3.2,3.3,0,3.7l-1.3,0.2
			l-3.1,12.1c-0.1,0.3-0.1,0.7-0.1,1c0.1,1.1,1.1,1.8,2.2,1.6c1.4-0.2,3.1-1.6,4-4.8c0.1-0.6,0.4-1.6,1-3.8c0.2-0.9,0.8-1.4,1.5-1.5
			c0.2,0,0.4,0,0.7,0C817.8,8019.1,818.3,8019.5,818.4,8020.2"/>
		<path id="Path_3245" class="st0" d="M840.3,8018.2c-1.6,5.9-4.2,8.9-8.6,9.4c-0.8,0.1-1.5,0.1-2.3,0.1c-1.6,2.2-3.8,3.9-6.5,4.2
			c-5.2,0.7-7.7-2-8.3-6.2c-0.9-6.8,3.3-16.4,10.4-17.4c4.5-0.6,6.9,2.5,7.4,6.7c0.3,2.8,0,5.7-1,8.4c0.3,0.1,0.7,0.2,1,0.1
			c1.5-0.2,3.1-1.8,4.3-6.1c0.3-1.2,1-1.7,2.1-1.5C840.1,8016.2,840.6,8017,840.3,8018.2 M825.3,8025.5c-0.4-0.5-0.6-1.2-0.7-1.8
			c-0.3-1.9,0.7-3.8,2.6-4.5c0.2-1.3,0.2-2.6,0-4c-0.2-1.7-0.9-2.9-2-2.8c-3,0.4-5.4,8.3-4.9,12.5c0.2,1.7,1,2.8,2.4,2.6
			C823.8,8027.5,824.6,8026.7,825.3,8025.5"/>
		<path id="Path_3246" class="st0" d="M875.5,8000.4c0.6,1.5,1,3.1,1.3,4.7c1.3,9.8-4,22.1-12.9,23.3c-6.6,0.9-10.1-3.7-10.9-9.8
			c-0.5-3.6-0.1-7.6,1-11.4l-2.5,0.3c-1.9,0.3-2.9-0.6-3-1.8c-0.2-1.3,0.8-2.9,2.9-3.1l4.7-0.6c2.7-5.2,6.9-9.3,12.4-10.1
			c4.5-0.6,7.5,1.8,7.9,4.8C876.5,7998,876.2,7999.3,875.5,8000.4 M871.7,8005.5c-0.1-0.5-0.2-1-0.3-1.5c-1.5,0.7-3.3,1.3-5.6,1.6
			l-6.2,0.8c-1.2,3.6-1.6,7.6-1.2,10.9c0.5,3.8,2.3,6.4,5.4,5.9C869.5,8022.4,872.6,8012.4,871.7,8005.5 M862.2,8001.1l3.5-0.5
			c4.4-0.6,5.7-2,5.6-3c-0.1-0.8-1.1-1.3-2.3-1.2C866.2,7996.8,863.9,7998.6,862.2,8001.1"/>
		<path id="Path_3247" class="st0" d="M905.1,8009.4c-0.3,1.1-0.5,2.1-0.8,3.2c-1.5,5.6-3.9,8.5-8.5,9.1c-2.2,0.3-4.2-0.3-5.3-1.7
			c-1.7,1.8-3.6,2.9-5.6,3.1c-3.2,0.4-5.5-1.3-5.9-4c-0.2-1.5,0.6-4.1,1.1-6.3l0.5-2l1.8-7.2c0.5-2.1,1.7-3,2.9-3.2
			c1.3-0.2,2.5,0.7,2.7,2.2c0.1,0.5,0,1.1-0.1,1.6l-1.5,5.8l-0.5,2c-0.6,2.2-1.2,4.2-1.1,4.9c0.1,1,0.7,1.5,1.6,1.4
			c1.1-0.2,2.6-1.3,3.3-3.5c0.2-1.1,0.6-2.5,1.1-4.3l2.1-8.2c0.5-2.1,1.7-3,2.9-3.2c1.3-0.2,2.5,0.7,2.7,2.2c0.1,0.5,0,1.1-0.1,1.6
			l-0.2,0.9l-1.5,5.9c-0.8,2.8-1.1,4.3-1.2,4.8c-0.4,1.7,0.5,2.9,1.9,2.7c1.3-0.2,2.8-1.7,3.6-4.8c0.2-0.6,0.4-1.6,1-3.8
			c0.3-1.2,1-1.7,2.1-1.5C904.9,8007.4,905.4,8008.2,905.1,8009.4"/>
		<path id="Path_3248" class="st0" d="M924,8006.8c-0.3,1.1-0.5,2.1-0.8,3.2c-1.5,5.6-3.9,8.5-8.5,9.1c-3.2,0.4-6-1.2-6.4-4
			c-0.2-1.3,0.2-2.9,1.3-7.3l1-3.6c0.1-0.2,0.1-0.4,0.1-0.6c-0.1-0.4-0.3-0.7-0.8-0.8l-2.9-0.8l-1.9,7.5c-0.1,0.8-0.7,1.4-1.5,1.5
			c-0.8,0.1-1.8-0.3-1.9-1.3c0-0.3,0-0.5,0.1-0.8c0.3-1.1,1.1-4.2,2-7.9c-1.2-0.6-2.1-1.8-2.3-3.2c-0.3-2.5,1.2-4,3-4.2
			c2-0.3,3.4,1.1,3.6,2.9c0,0.2,0,0.4,0,0.5l5.8,1.6c1.6,0.5,2.5,1.4,2.7,2.7c0.1,0.6,0,1.2-0.1,1.8l-1,4.1
			c-0.8,2.8-1.1,4.3-1.2,4.8c-0.4,1.7,0.5,2.9,1.9,2.7c1.3-0.2,2.8-1.7,3.6-4.8c0.2-0.6,0.4-1.6,1-3.8c0.3-1.2,1-1.7,2.1-1.5
			C923.9,8004.8,924.3,8005.6,924,8006.8"/>
		<path id="Path_3249" class="st0" d="M834.4,8054c0.8,5.6-2.6,11.8-10.1,12.8l-4,0.5l-1.7,6.5l-1,3.7c-0.5,1.9-1.7,2.7-2.8,2.9
			c-1.3,0.2-2.5-0.5-2.7-2c-0.1-0.5,0-1,0.1-1.5l0.6-2.4l5-19.3c0.5-2.1,1.7-3,2.9-3.2c1.3-0.2,2.5,0.7,2.7,2.2
			c0.1,0.5,0,1.1-0.1,1.6l-0.2,0.9l-1.5,5.9l1.2-0.2c4.9-0.7,7.1-4.4,6.6-7.7c-0.4-3.3-3.5-6.4-9.1-5.6c-4.7,0.6-8.8,3.4-8.3,7.8
			c0.3,1.9,1.3,2.3,1.8,2.9c0.2,0.2,0.3,0.4,0.3,0.7c0.1,0.9-0.7,2-1.9,2.2c-2.5,0.3-4.9-2.4-5.2-5c-1-7.3,5.7-12,13-13
			C828.8,8043.5,833.6,8048.5,834.4,8054"/>
		<path id="Path_3250" class="st0" d="M850.4,8063.7c-0.3,1.1-0.5,2.1-0.8,3.2c-1.5,5.6-3.9,8.5-8.5,9.1c-3.2,0.4-6-1.2-6.4-4
			c-0.2-1.3,0.2-2.9,1.3-7.3l5.5-21.5c0.5-2.1,1.7-3,2.9-3.2c1.3-0.2,2.5,0.7,2.7,2.2c0.1,0.5,0,1.1-0.1,1.6l-0.2,0.9l-4.9,19.2
			c-0.8,2.8-1.1,4.3-1.2,4.8c-0.4,1.7,0.5,2.9,1.9,2.7c1.3-0.2,2.8-1.7,3.6-4.8c0.2-0.6,0.4-1.6,1-3.8c0.3-1.2,1-1.7,2.1-1.5
			C850.2,8061.7,850.7,8062.5,850.4,8063.7"/>
		<path id="Path_3251" class="st0" d="M872.5,8060.7c-0.3,1.1-0.5,2.1-0.8,3.2c-1.5,5.6-3.9,8.5-8.5,9.1c-2.2,0.3-4.2-0.4-5.4-1.7
			c-1.4,1.8-3.2,2.9-4.9,3.1c-3.8,0.5-5.7-2.1-6.2-5.7c-0.9-6.7,3.1-16.8,9.9-17.7c1.6-0.2,3.3,0.3,4.1,1.3c0.6-1.2,1.5-1.8,2.4-1.9
			c1.3-0.2,2.5,0.7,2.7,2.2c0.1,0.5,0,1.1-0.1,1.6l-0.2,0.9l-1.5,5.9c-0.8,2.8-1.1,4.3-1.2,4.8c-0.4,1.7,0.5,2.9,1.9,2.7
			c1.3-0.2,2.8-1.7,3.6-4.8c0.2-0.6,0.4-1.6,1-3.8c0.3-1.2,1-1.7,2.1-1.5C872.3,8058.7,872.8,8059.5,872.5,8060.7 M857.3,8065
			l0.8-3.1l1.3-5.3c-0.2-0.7-0.8-1.2-1.6-1.1c-3.4,0.5-5.9,8.1-5.4,11.9c0.2,1.3,0.7,2.1,1.8,2C855.2,8069.2,856.5,8068,857.3,8065"
			/>
		<path id="Path_3252" class="st0" d="M893.6,8057.9c-0.3,1.1-0.5,2.1-0.8,3.2c-1.5,5.6-3.9,8.5-8.5,9.1c-3.2,0.4-6-1.2-6.4-4
			c-0.2-1.3,0.2-2.9,1.3-7.3c0.6-2.2,1.1-4.2,1-4.9c-0.1-0.8-0.5-1.3-1.6-1.1c-1.1,0.1-2,0.8-2.8,2.4l-2.6,10.2l-1,3.7
			c-0.5,1.9-1.7,2.7-2.8,2.9c-1.3,0.2-2.5-0.5-2.7-2c-0.1-0.5,0-1,0.1-1.5l0.6-2.4l3.6-14.2c0.5-2.1,1.7-3,2.9-3.2
			c1-0.1,2,0.4,2.5,1.4c1.4-1.5,3.1-2.4,4.7-2.6c2.5-0.3,4.8,0.9,5.2,3.6c0.2,1.2-0.5,4-1.3,6.9c-0.8,2.8-1.1,4.3-1.2,4.8
			c-0.4,1.7,0.5,2.9,1.9,2.7c1.3-0.2,2.8-1.7,3.6-4.8c0.2-0.6,0.4-1.6,1-3.8c0.3-1.2,1-1.7,2.1-1.5S893.9,8056.7,893.6,8057.9"/>
		<path id="Path_3253" class="st0" d="M912.3,8055.3l-0.6,2.5c-1.7,7.1-6.7,9.9-11.4,10.5c-6.2,0.8-9.7-2.1-10.3-6.5
			c-0.9-6.7,3.7-15.7,10.4-16.7c3.8-0.5,6,1.5,6.4,4.1c0.4,3-1.7,6.5-6.6,7.2l-4.1,0.6c-0.2,1.2-0.3,2.4-0.1,3.6
			c0.3,2.3,2,3.9,4.9,3.5s6.3-2.3,7.6-7.5l0.5-1.8c0.3-1.2,1-1.7,2.1-1.5C912.1,8053.3,912.6,8054.1,912.3,8055.3 M897.1,8053.4
			l2.5-0.3c2.1-0.3,3-1.6,2.8-2.6c-0.1-0.7-0.7-1.3-1.8-1.1C899.4,8049.6,898.1,8051.2,897.1,8053.4"/>
		<path id="Path_3254" class="st0" d="M923.9,8052.9c0,0.3,0,0.6-0.1,0.9c-0.3,1.1-0.8,2.9-1.1,4c-1.5,5.4-5.2,8-8.6,8.4
			c-3.3,0.4-6.3-1.1-6.7-3.9c-0.2-1.3,0.3-3.3,1-6l0.3-1.3l1.9-7.3l-0.1,0c-3.1,0.4-3-3.3,0.1-3.7l1.1-0.1l0.4-1.7l0.6-2.3
			c0.5-2.1,1.7-3,2.9-3.2c1.3-0.2,2.5,0.7,2.7,2.2c0.1,0.5,0,1.1-0.1,1.6l-0.2,0.9l-0.4,1.7l0.3,0c3.2-0.4,3.2,3.3,0,3.7l-1.3,0.2
			l-3.1,12.1c-0.1,0.3-0.1,0.7-0.1,1c0.1,1.1,1.1,1.8,2.2,1.6c1.4-0.2,3.1-1.6,4-4.8c0.1-0.6,0.4-1.6,1-3.8c0.2-0.9,0.8-1.4,1.5-1.5
			c0.2,0,0.4,0,0.7,0C923.3,8051.7,923.8,8052.2,923.9,8052.9"/>
		<line id="Line_11" class="st1" x1="738.7" y1="7964.7" x2="840.2" y2="7950.9"/>
		<line id="Line_12" class="st1" x1="703.1" y1="8016.2" x2="753.9" y2="8009.4"/>
		<line id="Line_13" class="st1" x1="885.2" y1="7994.2" x2="935.9" y2="7987.4"/>
		<line id="Line_14" class="st1" x1="853.8" y1="8045.1" x2="904.5" y2="8038.2"/>
		<line id="Line_15" class="st1" x1="749.9" y1="8059.1" x2="800.7" y2="8052.3"/>
		<line id="Line_16" class="st1" x1="813.4" y1="8089.6" x2="942.4" y2="8072.1"/>
		<line id="Line_17" class="st1" x1="885.1" y1="7944.9" x2="917.1" y2="7940.5"/>
		<line id="Line_18" class="st1" x1="939.4" y1="7937.5" x2="971.4" y2="7933.2"/>
	</g>
	<g id="Group_1926" transform="translate(-691.697 -7885.567)">
		<g id="Group_1948">
			<g id="Group_1924">
				<g id="Group_1949">
					
						<image style="overflow:visible;enable-background:new    ;" width="300" height="300" id="Rectangle_973" xlink:href="ADB92565A3DBDFD4.png"  transform="matrix(0.1513 6.106923e-02 -6.106923e-02 0.1513 940.8738 8017.5303)">
					</image>
				</g>
			</g>
		</g>
	</g>
</g>
</svg>
