<?xml version="1.0" encoding="utf-8"?>
<!-- Generator: Adobe Illustrator 26.0.3, SVG Export Plug-In . SVG Version: 6.00 Build 0)  -->
<svg version="1.1" id="Layer_1" xmlns:serif="http://www.serif.com/"
	 xmlns="http://www.w3.org/2000/svg" xmlns:xlink="http://www.w3.org/1999/xlink" x="0px" y="0px" viewBox="0 0 300 300"
	 style="enable-background:new 0 0 300 300;" xml:space="preserve">
<style type="text/css">
	.st0{fill:#FFFFFF;}
	.st1{fill:none;}
</style>
<g>
	<path class="st0" d="M300,150C300,67.2,232.8,0,150,0S0,67.2,0,150c0,74.9,54.9,136.9,126.6,148.2V193.4H88.5V150h38.1v-33
		c0-37.6,22.4-58.4,56.7-58.4c16.4,0,33.6,2.9,33.6,2.9v36.9h-18.9c-18.6,0-24.4,11.6-24.4,23.4V150H215l-6.7,43.4h-35v104.8
		C245.1,286.9,300,224.9,300,150z"/>
	<path class="st1" d="M208.4,193.4L215,150h-41.6v-28.1c0-11.9,5.8-23.4,24.4-23.4h18.9V61.5c0,0-17.2-2.9-33.6-2.9
		c-34.3,0-56.7,20.8-56.7,58.4v33H88.5v43.4h38.1v104.8c7.6,1.2,15.5,1.8,23.4,1.8s15.8-0.6,23.4-1.8V193.4H208.4z"/>
</g>
</svg>
