<?xml version="1.0" encoding="utf-8"?>
<!-- Generator: Adobe Illustrator 26.0.3, SVG Export Plug-In . SVG Version: 6.00 Build 0)  -->
<svg version="1.1" id="Layer_1" xmlns:serif="http://www.serif.com/"
	 xmlns="http://www.w3.org/2000/svg" xmlns:xlink="http://www.w3.org/1999/xlink" x="0px" y="0px" viewBox="0 0 300 300"
	 style="enable-background:new 0 0 300 300;" xml:space="preserve">
<style type="text/css">
	.st0{fill-rule:evenodd;clip-rule:evenodd;fill:#FFFFFF;}
</style>
<path class="st0" d="M262.5,0h-225C16.8,0,0,16.8,0,37.5v225C0,283.2,16.8,300,37.5,300h225c20.7,0,37.5-16.8,37.5-37.5v-225
	C300,16.8,283.2,0,262.5,0z M86,255.8H35.8V104.7H86V255.8z M60.9,84h-0.3c-16.9,0-27.8-11.6-27.8-26.1c0-14.8,11.2-26.1,28.4-26.1
	c17.2,0,27.8,11.3,28.1,26.1C89.3,72.4,78.4,84,60.9,84z M263.2,257.6h-50.2v-80.9c0-20.3-7.3-34.2-25.5-34.2
	c-13.9,0-22.2,9.3-25.8,18.4c-1.3,3.2-1.7,7.7-1.7,12.3v84.4h-50.2c0,0,0.7-137,0-151.1h50.2v21.4c6.7-10.3,18.6-25,45.3-25
	c33.1,0,57.8,21.6,57.8,68V257.6z"/>
</svg>
