<svg id="Digital_Energy_Logo" data-name="Digital Energy Logo" xmlns="http://www.w3.org/2000/svg" xmlns:xlink="http://www.w3.org/1999/xlink" width="611.365" height="535.44" viewBox="0 0 611.365 535.44">
  <defs>
    <clipPath id="clip-path">
      <rect id="Rectangle_998" data-name="Rectangle 998" width="611.365" height="535.44" fill="none"/>
    </clipPath>
  </defs>
  <g id="Group_2024" data-name="Group 2024" clip-path="url(#clip-path)">
    <path id="Path_3394" data-name="Path 3394" d="M5.834,184.116c22.414-51.564,72.157-87.6,131.007-87.6H220.8v87.6Z" transform="translate(6.912 114.352)" fill="#1160a8"/>
    <path id="Path_3395" data-name="Path 3395" d="M220.849,193.032v87.6H136.887c-58.924,0-108.722-35.881-131.092-87.6Z" transform="translate(6.866 228.705)" fill="#1160a8"/>
    <path id="Path_3396" data-name="Path 3396" d="M227.715,219.345H4.029a156.5,156.5,0,0,1,.033-70.7H227.715Z" transform="translate(0 176.109)" fill="#1160a8"/>
    <path id="Path_3397" data-name="Path 3397" d="M280.13,87.6C257.718,36.036,207.973,0,149.125,0H65.163V87.6Z" transform="translate(77.205)" fill="#1160a8"/>
    <path id="Path_3398" data-name="Path 3398" d="M65.163,96.516v87.6h83.962c58.924,0,108.722-35.881,131.093-87.6Z" transform="translate(77.205 114.352)" fill="#1160a8"/>
    <path id="Path_3399" data-name="Path 3399" d="M65.163,122.829H288.85a156.5,156.5,0,0,0-.033-70.7H65.163Z" transform="translate(77.205 61.757)" fill="#1160a8"/>
    <path id="Path_3400" data-name="Path 3400" d="M116.832,227.695V148.747h23.574c21.544,0,38.459,17.71,38.459,39.475,0,21.879-16.915,39.473-38.459,39.473Zm23.574-2.593c19.845,0,35.521-16.465,35.521-36.879,0-20.3-15.676-36.879-35.521-36.879H119.653V225.1Z" transform="translate(138.423 176.236)" fill="#fff"/>
    <path id="Path_3401" data-name="Path 3401" d="M152.267,148.677c1.6,0,2.633,1.149,2.633,3.214s-1.036,3.212-2.633,3.212-2.644-1.149-2.644-3.212,1.038-3.214,2.644-3.214M151,224.094h2.755V167.318H151Z" transform="translate(177.274 176.153)" fill="#fff"/>
    <path id="Path_3402" data-name="Path 3402" d="M166.135,232.338c7.229,5.272,14.57,6.766,22.713,6.766,15.486,0,25.918-10.437,25.918-25.693V198.154c-4.127,11.011-13.878,17.778-26.609,17.778-17.9,0-29.13-13.076-29.13-29.709,0-16.172,10.432-29.593,28.9-29.593,13.421,0,22.827,7.341,26.834,17.9V157.895h2.755v55.516c0,16.746-11.357,28.215-28.673,28.215-8.713,0-16.4-1.606-23.974-6.882Zm22.023-18.927c15.261,0,26.731-11.011,26.731-27.188,0-15.141-10.666-27.068-26.956-27.068-16.633,0-26.038,12.274-26.038,27.068,0,15.256,10.1,27.188,26.263,27.188" transform="translate(188.417 185.576)" fill="#fff"/>
    <path id="Path_3403" data-name="Path 3403" d="M197.444,148.677c1.6,0,2.633,1.149,2.633,3.214s-1.036,3.212-2.633,3.212-2.644-1.149-2.644-3.212,1.036-3.214,2.644-3.214m-1.272,75.417h2.755V167.318h-2.755Z" transform="translate(230.8 176.153)" fill="#fff"/>
    <path id="Path_3404" data-name="Path 3404" d="M240.9,209.691a8.825,8.825,0,0,1,.579,2.866c0,7.341-5.165,13.076-13.878,13.076-7.118,0-14.8-2.751-14.8-18.464V170.117H202.366V167.6h10.441l.8-19.154h1.942V167.6H234.71v2.521H215.553v37.052c0,13.533,6.314,15.943,12.049,15.943,6.882,0,11.123-4.59,11.123-10.555a8.6,8.6,0,0,0-.459-2.866Z" transform="translate(239.764 175.874)" fill="#fff"/>
    <path id="Path_3405" data-name="Path 3405" d="M252.334,156.63c13.421,0,22.827,7.341,26.834,17.9V157.895h2.755v56.776h-2.755V198.154c-4.127,11.011-13.878,17.778-26.609,17.778-17.9,0-29.13-13.076-29.13-29.709,0-16.172,10.432-29.593,28.9-29.593m.225,56.781c15.261,0,26.731-11.011,26.731-27.188,0-15.141-10.666-27.068-26.956-27.068-16.633,0-26.038,12.274-26.038,27.068,0,15.256,10.1,27.188,26.263,27.188" transform="translate(264.719 185.576)" fill="#fff"/>
    <rect id="Rectangle_997" data-name="Rectangle 997" width="2.755" height="75.417" transform="translate(567.786 324.83)" fill="#fff"/>
    <path id="Path_3406" data-name="Path 3406" d="M116.832,275.783V196.835h46.687v2.593H119.651V235.86H158v2.593h-38.35V273.19h43.869v2.593Z" transform="translate(138.423 233.211)" fill="#fff"/>
    <path id="Path_3407" data-name="Path 3407" d="M149.852,264.689H147.1V207.913h2.755v13.88a24.21,24.21,0,0,1,21.678-15.145c11.59,0,24.433,5.165,24.433,25.123v32.918h-2.755V231.771c0-18.012-11.348-22.6-21.678-22.6-7.107,0-21.221,5.506-21.678,24.891Z" transform="translate(174.281 244.837)" fill="#fff"/>
    <path id="Path_3408" data-name="Path 3408" d="M230.622,256.755c-6.771,6.655-15.261,8.72-22.827,8.72-19.043,0-31.54-13.305-31.54-29.477,0-16.288,12.731-29.825,30.391-29.825,13.655,0,26.611,8.031,27.413,26.84H179.235a28.782,28.782,0,0,0-.111,3.1c0,14.682,11.346,26.84,28.671,26.84,6.884,0,14.8-1.951,20.987-8.143ZM179.58,230.72h51.5c-1.492-15.141-12.506-22.023-24.433-22.023A27.013,27.013,0,0,0,179.58,230.72" transform="translate(208.827 244.273)" fill="#fff"/>
    <path id="Path_3409" data-name="Path 3409" d="M212.307,223.611c2.755-9.639,8.49-17.207,20.306-17.207,1.027,0,2.633.116,3.557.227v2.755c-.924-.116-2.755-.227-3.557-.227-16.635,0-20.072,18.123-20.306,33.264v22.023h-2.755V207.669h2.755Z" transform="translate(248.278 244.548)" fill="#fff"/>
    <path id="Path_3410" data-name="Path 3410" d="M229.847,281.88c7.23,5.272,14.57,6.766,22.713,6.766,15.486,0,25.918-10.437,25.918-25.693V247.7c-4.127,11.011-13.878,17.778-26.609,17.778-17.9,0-29.13-13.076-29.13-29.709,0-16.172,10.432-29.593,28.9-29.593,13.421,0,22.827,7.341,26.834,17.9V207.437h2.755v55.516c0,16.747-11.357,28.215-28.673,28.215-8.713,0-16.4-1.606-23.974-6.882Zm22.023-18.927c15.261,0,26.731-11.011,26.731-27.188,0-15.141-10.666-27.068-26.956-27.068-16.633,0-26.038,12.274-26.038,27.068,0,15.256,10.1,27.188,26.263,27.188" transform="translate(263.903 244.273)" fill="#fff"/>
    <path id="Path_3411" data-name="Path 3411" d="M255.626,206.751h3.091l23.629,55.4,23.061-55.4H308.5l-34.754,82.47H270.99l9.862-23.858Z" transform="translate(302.867 244.959)" fill="#fff"/>
  </g>
</svg>
