<?xml version="1.0" encoding="utf-8"?>
<!-- Generator: Adobe Illustrator 26.0.3, SVG Export Plug-In . SVG Version: 6.00 Build 0)  -->
<svg version="1.1" id="Layer_1" xmlns="http://www.w3.org/2000/svg" xmlns:xlink="http://www.w3.org/1999/xlink" x="0px" y="0px"
	 viewBox="0 0 226 300" style="enable-background:new 0 0 226 300;" xml:space="preserve">
<style type="text/css">
	.st0{fill:#1160A8;}
</style>
<g id="Group_2323" transform="translate(-296.443 -76.104)">
	<path id="Path_3384" class="st0" d="M309,251.4c12.8-30.5,42.6-50.4,75.6-50.6h48.5v50.6H309z"/>
	<path id="Path_3385" class="st0" d="M433.1,322.5v50.6h-48.5c-33.1-0.1-62.9-20-75.7-50.6H433.1z"/>
	<path id="Path_3386" class="st0" d="M433.1,307.4H304c-3.1-13.4-3.1-27.4,0-40.8h129.1L433.1,307.4z"/>
	<path id="Path_3387" class="st0" d="M507.9,129.7c-12.8-30.5-42.5-50.4-75.6-50.6h-48.5v50.6H507.9z"/>
	<path id="Path_3388" class="st0" d="M383.8,200.8v50.6h48.5c33.1-0.1,62.9-20,75.7-50.6H383.8z"/>
	<path id="Path_3389" class="st0" d="M383.8,185.7h129.1c3.1-13.4,3.1-27.4,0-40.8H383.8L383.8,185.7z"/>
</g>
</svg>
